<svg xmlns="http://www.w3.org/2000/svg" version="1.1" xmlns:xlink="http://www.w3.org/1999/xlink" xmlns:svgjs="http://svgjs.dev/svgjs" width="1000" height="1000" viewBox="0 0 1000 1000"><g transform="matrix(1,0,0,1,0.4048582995951051,0.4048582995951051)"><svg viewBox="0 0 247 247" data-background-color="#e21010" preserveAspectRatio="xMidYMid meet" height="1000" width="1000" xmlns="http://www.w3.org/2000/svg" xmlns:xlink="http://www.w3.org/1999/xlink"><defs></defs><g id="tight-bounds" transform="matrix(1,0,0,1,-0.09999999999999432,-0.09999999999999432)"><svg viewBox="0 0 247.2 247.2" height="247.2" width="247.2"><g><svg viewBox="0 0 247.2 247.2" height="247.2" width="247.2"><g><svg viewBox="0 0 247.2 247.2" height="247.2" width="247.2"><g><svg viewBox="0 0 247.2 247.2" height="247.2" width="247.2"><g><svg viewBox="0 0 247.2 247.2" height="247.2" width="247.2"><g><svg viewBox="0 0 247.2 247.2" height="247.2" width="247.2"><g transform="matrix(1,0,0,1,51.33897489737912,50.939293545663645)"><svg viewBox="0 0 144.52205020524175 145.3214129086727" height="145.3214129086727" width="144.52205020524175"><g><circle r="73" cx="72.8319984622144" cy="72.8319984622144" fill="#0f0d0d" data-fill-palette-color="accent"></circle><svg xmlns="http://www.w3.org/2000/svg" xmlns:xlink="http://www.w3.org/1999/xlink" version="1.1" x="21.678307530786263" y="21.678307530786263" viewBox="9.63800048828125 3.246999979019165 80.7239990234375 93.50699615478516" enable-background="new 0 0 100 100" xml:space="preserve" height="101.96479784710016" width="101.16543514366923" class="icon-o-0" data-fill-palette-color="quaternary" id="o-0"><g fill="#ff1000" data-fill-palette-color="quaternary"><g fill="#ff1000" data-fill-palette-color="quaternary"><polygon points="36.703,11.011 9.638,26.636 9.638,38.757 36.703,23.131 63.767,38.757 63.767,26.636   " fill="#ff1000" data-fill-palette-color="quaternary"></polygon></g><g fill="#ff1000" data-fill-palette-color="quaternary"><polygon points="63.298,89.092 36.233,73.467 36.233,61.348 63.298,76.973 90.362,61.348 90.362,73.467   " fill="#ff1000" data-fill-palette-color="quaternary"></polygon></g><g fill="#ff1000" data-fill-palette-color="quaternary"><polygon points="9.638,42.012 36.703,26.386 47.198,32.446 20.134,48.072 20.134,79.324 9.638,73.264   " fill="#ff1000" data-fill-palette-color="quaternary"></polygon></g><g fill="#ff1000" data-fill-palette-color="quaternary"><polygon points="77.083,18.872 50.018,3.247 39.522,9.307 66.586,24.932 66.586,56.184 77.083,50.124   " fill="#ff1000" data-fill-palette-color="quaternary"></polygon></g><g fill="#ff1000" data-fill-palette-color="quaternary"><polygon points="23.01,81.127 23.011,49.876 33.507,43.816 33.507,75.068 60.571,90.693 50.075,96.754   " fill="#ff1000" data-fill-palette-color="quaternary"></polygon></g><g fill="#ff1000" data-fill-palette-color="quaternary"><polygon points="90.362,58.092 90.362,26.84 79.866,20.78 79.866,52.031 52.802,67.658 63.298,73.719   " fill="#ff1000" data-fill-palette-color="quaternary"></polygon></g></g></svg></g></svg></g><path d="M4.868 72.291v0c-1.064-0.38-1.745-0.152-2.043 0.683v0c-0.401 1.123 0.118 2.636 1.557 4.541 1.439 1.905 3.184 3.705 5.236 5.402 2.049 1.703 3.905 3.171 5.568 4.405 1.67 1.237 2.62 1.896 2.849 1.978 0.228 0.082 0.298 0.246 0.209 0.494v0c-0.186 0.522-0.978 0.534-2.374 0.035v0c-3.381-1.207-6.528-2.761-9.44-4.662-2.915-1.894-4.739-3.495-5.472-4.801v0c-0.547 2.623-0.39 4.968 0.469 7.033v0c0.473 1.17 1.173 1.92 2.1 2.251v0c0.457 0.163 0.747 0.072 0.87-0.274v0c0.218 0.151 0.27 0.387 0.156 0.707-0.112 0.313-0.33 0.544-0.656 0.693-0.332 0.146-0.717 0.142-1.153-0.015v0c-1.031-0.368-1.765-1.333-2.201-2.894-0.44-1.57-0.613-3.159-0.517-4.766 0.087-1.603 0.312-2.913 0.675-3.931v0c0.1-0.281 0.291-0.371 0.571-0.271v0c2.158 2.014 5.656 4.429 10.493 7.246v0l0.077-0.215c-2.85-2.18-5.264-4.393-7.244-6.638v0c-1.088-1.22-1.861-2.412-2.321-3.577-0.464-1.174-0.53-2.224-0.2-3.151v0c0.676-1.893 2.029-2.477 4.058-1.752v0c1.227 0.438 2.441 1.357 3.641 2.757v0c1.539 1.771 2.416 3.622 2.631 5.553v0c0.125 1.031 0.031 1.983-0.281 2.858v0c-0.075 0.209-0.195 0.35-0.36 0.423-0.157 0.069-0.356 0.079-0.596 0.03v0c0.587-1.645 0.161-3.552-1.28-5.722v0c-1.161-1.776-2.521-3.1-4.078-3.973v0c-0.329-0.191-0.644-0.34-0.944-0.447zM58.258 31.848v0c-1.539-2.28-2.679-4.471-3.421-6.572-0.735-2.104-0.741-3.401-0.016-3.889v0c0.356-0.24 0.664-0.168 0.924 0.217v0c0.116 0.507 0.283 1.168 0.498 1.983 0.22 0.821 0.724 2.225 1.512 4.21 0.792 1.991 1.645 3.664 2.561 5.019v0c0.143 0.213 0.1 0.396-0.129 0.552v0c-0.414 0.279-1.057-0.227-1.929-1.52zM53.972 18.235l-0.014 0.573c-0.322 0.217-0.69 0.018-1.105-0.596v0c-0.248-0.368-0.409-0.823-0.483-1.366-0.08-0.54 0.067-0.936 0.44-1.188v0c0.304-0.206 0.575-0.133 0.811 0.217v0c0.24 0.356 0.357 1.143 0.351 2.36zM127.174 15.406v0c-0.797-0.019-1.525-0.581-2.184-1.686-0.66-1.104-1.33-2.611-2.012-4.52v0c-1 1.501-1.807 2.629-2.422 3.383-0.614 0.755-1.109 1.127-1.483 1.119v0c-0.201-0.005-0.352-0.067-0.453-0.188-0.101-0.127-0.15-0.257-0.146-0.388v0l0.004-0.187c0.132 0.003 0.283-0.083 0.454-0.26 0.17-0.169 0.32-0.318 0.447-0.446 0.121-0.129 0.267-0.305 0.439-0.53 0.179-0.231 0.333-0.439 0.463-0.624 0.136-0.177 0.312-0.419 0.527-0.725 0.208-0.3 0.384-0.556 0.528-0.767 0.144-0.211 0.341-0.498 0.593-0.859v0c0 0 0.201-0.283 0.603-0.849v0c-0.084-0.265-0.193-0.604-0.329-1.016-0.143-0.412-0.256-0.748-0.34-1.007-0.091-0.266-0.191-0.573-0.3-0.922-0.116-0.343-0.217-0.626-0.302-0.85-0.085-0.224-0.179-0.469-0.283-0.735-0.111-0.266-0.207-0.476-0.287-0.631-0.079-0.161-0.173-0.309-0.28-0.443v0c-0.18-0.282-0.354-0.425-0.52-0.429v0c0.023-0.076 0.049-0.172 0.08-0.289 0.031-0.124 0.156-0.284 0.375-0.479 0.22-0.203 0.486-0.3 0.798-0.293v0c0.464 0.011 0.914 0.469 1.349 1.374 0.436 0.905 0.901 2.171 1.395 3.798v0c2.249-2.996 3.849-4.482 4.798-4.459v0c0.222 0.005 0.4 0.076 0.536 0.211 0.135 0.135 0.221 0.331 0.256 0.588v0c-0.672-0.016-1.431 0.416-2.278 1.297-0.853 0.881-1.826 2.108-2.917 3.683v0c0.991 3.442 1.686 5.5 2.086 6.175 0.407 0.668 0.735 1.006 0.984 1.012 0.249 0.006 0.48-0.078 0.692-0.254 0.205-0.168 0.346-0.252 0.422-0.249v0c0.256 0.006 0.241 0.21-0.046 0.612v0c-0.079 0.123-0.246 0.296-0.501 0.518-0.255 0.216-0.503 0.321-0.746 0.315zM198.137 27.673v0c1.12 0.863 1.177 1.947 0.17 3.254v0c-0.579 0.752-1.439 1.346-2.578 1.78v0c-1.904 0.712-3.564 0.522-4.981-0.569v0c-0.22-0.169-0.376-0.347-0.469-0.532-0.088-0.181-0.113-0.376-0.076-0.584v0c1.049 0.808 2.472 0.942 4.27 0.403v0c1.451-0.43 2.488-1.049 3.109-1.857v0c0.465-0.604 0.456-1.092-0.027-1.464v0c-0.972-0.749-2.461-0.689-4.468 0.18v0c-2.164 0.958-3.914 2.304-5.25 4.039v0c-1.138 1.477-1.399 2.684-0.783 3.622v0c0.113 0.183 0.295 0.372 0.548 0.567 0.247 0.19 0.559 0.33 0.936 0.419 0.377 0.089 0.73 0.12 1.058 0.093v0c0.655-0.055 1.271-0.202 1.848-0.44v0c0.149-0.069 0.303-0.042 0.462 0.081v0c0.269 0.207 0.361 0.348 0.277 0.423v0c-0.167 0.125-0.541 0.27-1.122 0.435-0.587 0.16-1.088 0.26-1.503 0.299-0.419 0.045-0.893 0.007-1.423-0.112-0.534-0.114-1.001-0.325-1.401-0.634v0c-1.559-1.201-1.986-2.702-1.281-4.503v0c0.253-0.601 0.585-1.168 0.995-1.701v0c0.761-0.988 1.816-1.886 3.164-2.693v0c2.087-1.21 4.061-1.718 5.924-1.525v0c1.009 0.121 1.876 0.461 2.601 1.019zM221.89 93.42v0c-0.311-1.028 0.001-1.951 0.933-2.769 0.94-0.82 2.494-1.557 4.664-2.213 2.169-0.655 4.837-1.11 8.004-1.365 3.158-0.259 5.846-0.253 8.063 0.019 2.218 0.271 3.424 0.729 3.618 1.372v0c0.09 0.299-0.041 0.501-0.392 0.607v0c-0.968-0.113-2.397-0.195-4.288-0.247-1.891-0.051-3.62-0.047-5.186 0.014-1.576 0.056-3.389 0.224-5.441 0.504-2.051 0.279-3.777 0.631-5.177 1.053-1.393 0.421-2.426 0.885-3.098 1.392-0.674 0.5-0.938 0.993-0.791 1.477v0c0.124 0.411 0.435 0.745 0.932 1 0.49 0.257 0.949 0.408 1.375 0.454v0c0.22 0.035 0.323 0.181 0.306 0.439v0c-0.014 0.098-0.084 0.141-0.211 0.129-0.131-0.004-0.298-0.029-0.501-0.077-0.209-0.045-0.538-0.138-0.985-0.277v0c-0.996-0.278-1.605-0.782-1.825-1.512zM24.145 164.545v0c0.898-0.307 1.227-0.814 0.985-1.523v0c-0.323-0.944-1.454-1.664-3.395-2.157-1.943-0.501-4.028-0.773-6.256-0.819-2.236-0.049-4.226-0.043-5.97 0.018-1.744 0.061-2.711 0.124-2.901 0.189-0.19 0.065-0.32-0.004-0.39-0.207v0c-0.152-0.446 0.362-0.871 1.543-1.274v0c2.846-0.972 5.724-1.596 8.632-1.872 2.902-0.273 4.939-0.175 6.11 0.297v0c-1.016-2.011-2.349-3.467-3.997-4.369v0c-0.92-0.528-1.77-0.659-2.551-0.392v0c-0.387 0.132-0.53 0.346-0.429 0.641v0c-0.223 0.01-0.38-0.116-0.469-0.378-0.092-0.269-0.07-0.536 0.066-0.803 0.14-0.275 0.394-0.475 0.761-0.601v0c0.872-0.298 1.859-0.046 2.962 0.758 1.108 0.801 2.052 1.752 2.831 2.855 0.78 1.103 1.315 2.081 1.607 2.934v0c0.081 0.236 0.003 0.394-0.234 0.475v0c-2.467-0.19-6.023 0.054-10.669 0.733v0l0.061 0.177c3.013-0.055 5.755 0.136 8.226 0.574v0c1.347 0.236 2.481 0.617 3.401 1.145 0.911 0.524 1.501 1.179 1.77 1.966v0c0.544 1.594-0.039 2.683-1.751 3.268v0c-1.036 0.354-2.312 0.383-3.826 0.087v0c-1.938-0.356-3.485-1.113-4.642-2.27v0c-0.618-0.609-1.054-1.284-1.307-2.025v0c-0.06-0.177-0.054-0.329 0.02-0.458 0.071-0.134 0.197-0.25 0.375-0.348v0c0.475 1.39 1.75 2.423 3.827 3.099v0c1.692 0.557 3.28 0.714 4.763 0.471v0c0.315-0.042 0.598-0.105 0.847-0.191zM52.497 221.699v0c1.311-1.9 2.673-3.46 4.088-4.681 1.425-1.223 2.439-1.626 3.045-1.209v0c0.291 0.201 0.324 0.464 0.099 0.789v0c-0.354 0.244-0.819 0.576-1.394 0.996-0.576 0.42-1.518 1.243-2.827 2.469-1.309 1.227-2.354 2.405-3.134 3.534v0c-0.126 0.183-0.286 0.207-0.479 0.074v0c-0.342-0.236-0.141-0.893 0.602-1.972zM61.827 214.18l-0.455 0.166c-0.268-0.185-0.225-0.534 0.129-1.047v0c0.213-0.308 0.52-0.576 0.921-0.805 0.398-0.222 0.75-0.227 1.058-0.015v0c0.257 0.177 0.285 0.411 0.084 0.702v0c-0.205 0.297-0.784 0.63-1.737 0.999zM126.616 246.415v0c-0.672 0.014-1.305-0.431-1.899-1.334-0.601-0.903-1.218-2.141-1.853-3.716v0c-0.785 1.291-1.42 2.268-1.906 2.93-0.486 0.655-0.885 0.985-1.196 0.991v0c-0.173 0.004-0.306-0.042-0.398-0.138-0.085-0.102-0.129-0.209-0.132-0.319v0l-0.003-0.167c0.111-0.002 0.234-0.078 0.37-0.226 0.136-0.148 0.254-0.279 0.356-0.391 0.102-0.113 0.22-0.268 0.354-0.465 0.135-0.197 0.256-0.376 0.364-0.538 0.108-0.155 0.242-0.362 0.403-0.621 0.168-0.26 0.309-0.481 0.423-0.664 0.114-0.183 0.269-0.432 0.463-0.748v0c0 0 0.158-0.246 0.474-0.737v0c-0.081-0.213-0.187-0.492-0.319-0.836-0.132-0.337-0.238-0.616-0.318-0.836-0.081-0.213-0.176-0.464-0.286-0.753-0.11-0.289-0.205-0.526-0.284-0.712-0.08-0.186-0.171-0.385-0.272-0.597-0.095-0.22-0.178-0.395-0.25-0.525-0.072-0.13-0.158-0.25-0.257-0.359v0c-0.157-0.226-0.308-0.337-0.454-0.334v0c0.02-0.063 0.039-0.146 0.057-0.251 0.019-0.104 0.116-0.245 0.293-0.422 0.177-0.17 0.397-0.258 0.66-0.262v0c0.395-0.008 0.791 0.358 1.187 1.098 0.396 0.741 0.833 1.785 1.312 3.135v0c1.77-2.601 3.054-3.909 3.85-3.926v0c0.187-0.004 0.341 0.049 0.461 0.157 0.12 0.108 0.196 0.273 0.228 0.495v0c-0.561 0.011-1.181 0.402-1.858 1.171-0.678 0.769-1.446 1.832-2.306 3.187v0c0.959 2.85 1.621 4.549 1.985 5.096 0.365 0.547 0.651 0.819 0.859 0.814 0.208-0.004 0.397-0.081 0.567-0.229 0.17-0.156 0.286-0.235 0.349-0.236v0c0.215-0.004 0.211 0.169-0.01 0.52v0c-0.06 0.112-0.196 0.264-0.407 0.455-0.204 0.191-0.407 0.289-0.607 0.293zM190.776 210.094v0c0.939-0.723 1.833-0.533 2.683 0.571v0c0.486 0.631 0.787 1.454 0.903 2.467v0c0.165 1.702-0.346 3.009-1.532 3.922v0c-0.181 0.14-0.358 0.228-0.531 0.265-0.172 0.027-0.337 0.006-0.495-0.065v0c0.878-0.677 1.292-1.804 1.239-3.382v0c-0.033-1.269-0.312-2.244-0.836-2.925v0c-0.389-0.505-0.787-0.601-1.193-0.288v0c-0.818 0.63-1.088 1.853-0.81 3.668v0c0.314 1.963 1.031 3.672 2.152 5.126v0c0.952 1.235 1.874 1.706 2.767 1.412v0c0.175-0.056 0.367-0.165 0.576-0.326 0.209-0.161 0.391-0.384 0.546-0.67 0.156-0.286 0.256-0.565 0.302-0.836v0c0.09-0.542 0.105-1.074 0.043-1.595v0c-0.027-0.137 0.026-0.256 0.158-0.358v0c0.225-0.173 0.36-0.22 0.404-0.14v0c0.067 0.167 0.103 0.503 0.106 1.007 0.008 0.51-0.016 0.939-0.071 1.288-0.055 0.349-0.188 0.727-0.399 1.134-0.205 0.403-0.476 0.734-0.81 0.992v0c-1.312 1.011-2.622 1.036-3.931 0.076v0c-0.435-0.338-0.824-0.73-1.167-1.174v0c-0.634-0.824-1.136-1.872-1.505-3.146v0c-0.538-1.948-0.529-3.656 0.028-5.125v0c0.311-0.8 0.769-1.432 1.373-1.898zM241.962 158.696v0c-0.257 0.871-0.906 1.376-1.944 1.518-1.03 0.136-2.459-0.066-4.287-0.607-1.821-0.538-3.901-1.446-6.241-2.724-2.34-1.277-4.223-2.521-5.651-3.73-1.434-1.212-2.071-2.087-1.912-2.625v0c0.075-0.253 0.262-0.335 0.561-0.246v0c0.625 0.525 1.588 1.239 2.889 2.144 1.301 0.905 2.518 1.702 3.65 2.391 1.135 0.683 2.485 1.396 4.05 2.141 1.57 0.753 2.939 1.303 4.109 1.649 1.176 0.348 2.118 0.5 2.825 0.456 0.7-0.046 1.11-0.272 1.23-0.677v0c0.102-0.346 0.04-0.722-0.187-1.129-0.227-0.407-0.48-0.724-0.759-0.951v0c-0.136-0.127-0.139-0.276-0.009-0.447v0c0.048-0.065 0.117-0.067 0.207-0.004 0.088 0.069 0.193 0.166 0.316 0.289 0.127 0.132 0.317 0.347 0.568 0.645v0c0.571 0.66 0.766 1.296 0.585 1.907zM3.636 123.328c0-1.365 1.107-2.472 2.472-2.472 1.365 0 2.472 1.107 2.472 2.472 0 1.365-1.107 2.472-2.472 2.472-1.365 0-2.472-1.107-2.472-2.472zM234.92 123.328c0-1.365 1.107-2.472 2.472-2.472 1.365 0 2.472 1.107 2.472 2.472 0 1.365-1.107 2.472-2.472 2.472-1.365 0-2.472-1.107-2.472-2.472z" fill="#eac91e" data-fill-palette-color="primary"></path></svg></g></svg></g></svg></g><g></g></svg></g></svg></g></svg><rect width="247.2" height="247.2" fill="none" stroke="none" visibility="hidden"></rect></g></svg></g></svg>